<mxfile host="app.diagrams.net" modified="2021-11-15T10:54:04.168Z" agent="5.0 (Windows)" etag="yNx_Z0BP1O0lU_vy2pqZ" version="15.7.3" type="github">
  <diagram name="Page-1" id="80d4a630-b321-0f5e-ff81-c5a36ef4752d">
    <mxGraphModel dx="1038" dy="1373" grid="1" gridSize="10" guides="1" tooltips="1" connect="1" arrows="1" fold="1" page="1" pageScale="1" pageWidth="1100" pageHeight="850" background="none" math="0" shadow="0">
      <root>
        <mxCell id="0" />
        <mxCell id="1" parent="0" />
        <mxCell id="5c82df7aa0dc6260-13" value="" style="ellipse;whiteSpace=wrap;html=1;rounded=1;shadow=0;comic=0;labelBackgroundColor=none;strokeColor=#6881B3;strokeWidth=2;fillColor=#CCFFCC;fontFamily=Helvetica;fontSize=22;fontColor=#000000;verticalAlign=middle;gradientColor=none;gradientDirection=north;" parent="1" vertex="1">
          <mxGeometry x="1000" width="660" height="400" as="geometry" />
        </mxCell>
        <mxCell id="5c82df7aa0dc6260-21" style="edgeStyle=none;rounded=0;html=1;labelBackgroundColor=none;endArrow=none;strokeColor=#6881B3;strokeWidth=2;fontFamily=Verdana;fontSize=28;fontColor=#0066CC;" parent="1" source="5c82df7aa0dc6260-6" edge="1">
          <mxGeometry relative="1" as="geometry">
            <mxPoint x="1371" y="271.8301158301158" as="targetPoint" />
          </mxGeometry>
        </mxCell>
        <mxCell id="i8z0L9Vh0QL731lTVB1n-7" value="" style="rounded=1;whiteSpace=wrap;html=1;" vertex="1" parent="1">
          <mxGeometry x="1463" y="130" width="172" height="150" as="geometry" />
        </mxCell>
        <mxCell id="i8z0L9Vh0QL731lTVB1n-9" value="" style="rounded=1;whiteSpace=wrap;html=1;" vertex="1" parent="1">
          <mxGeometry x="1080" y="60" width="290" height="270" as="geometry" />
        </mxCell>
        <mxCell id="i8z0L9Vh0QL731lTVB1n-10" value="&lt;i&gt;&lt;b&gt;&lt;font style=&quot;font-size: 18px&quot;&gt;K3S CLUSTER&lt;span style=&quot;white-space: pre&quot;&gt;	&lt;/span&gt;&lt;/font&gt;&lt;/b&gt;&lt;/i&gt;" style="text;html=1;strokeColor=none;fillColor=none;align=center;verticalAlign=middle;whiteSpace=wrap;rounded=0;" vertex="1" parent="1">
          <mxGeometry x="1217" y="-170" width="290" height="70" as="geometry" />
        </mxCell>
        <mxCell id="i8z0L9Vh0QL731lTVB1n-11" value="Master Node / Control Plane" style="text;html=1;strokeColor=none;fillColor=none;align=center;verticalAlign=middle;whiteSpace=wrap;rounded=0;fontSize=18;" vertex="1" parent="1">
          <mxGeometry x="1200" y="-90" width="300" height="60" as="geometry" />
        </mxCell>
        <mxCell id="i8z0L9Vh0QL731lTVB1n-12" value="cavkube01.cavom.lan / 10.5.41.20" style="text;html=1;align=center;verticalAlign=middle;resizable=0;points=[];autosize=1;strokeColor=none;fillColor=none;fontSize=18;" vertex="1" parent="1">
          <mxGeometry x="1205" y="-50" width="290" height="30" as="geometry" />
        </mxCell>
        <mxCell id="i8z0L9Vh0QL731lTVB1n-13" value="default" style="text;html=1;strokeColor=none;fillColor=none;align=center;verticalAlign=middle;whiteSpace=wrap;rounded=0;fontSize=18;" vertex="1" parent="1">
          <mxGeometry x="1507" y="90" width="60" height="30" as="geometry" />
        </mxCell>
        <mxCell id="i8z0L9Vh0QL731lTVB1n-14" value="kube-system" style="text;html=1;strokeColor=none;fillColor=none;align=center;verticalAlign=middle;whiteSpace=wrap;rounded=0;fontSize=18;" vertex="1" parent="1">
          <mxGeometry x="1200" y="20" width="120" height="30" as="geometry" />
        </mxCell>
        <mxCell id="i8z0L9Vh0QL731lTVB1n-16" value="sample-nodeapp-b" style="ellipse;whiteSpace=wrap;html=1;aspect=fixed;fontSize=18;" vertex="1" parent="1">
          <mxGeometry x="1496" y="147" width="106" height="106" as="geometry" />
        </mxCell>
        <mxCell id="i8z0L9Vh0QL731lTVB1n-17" value="coredns" style="ellipse;whiteSpace=wrap;html=1;aspect=fixed;fontSize=18;" vertex="1" parent="1">
          <mxGeometry x="1091" y="67" width="103" height="103" as="geometry" />
        </mxCell>
        <mxCell id="i8z0L9Vh0QL731lTVB1n-18" value="local-path-provisioner" style="ellipse;whiteSpace=wrap;html=1;aspect=fixed;fontSize=18;" vertex="1" parent="1">
          <mxGeometry x="1180" y="130" width="101" height="101" as="geometry" />
        </mxCell>
        <mxCell id="i8z0L9Vh0QL731lTVB1n-19" value="traefik" style="ellipse;whiteSpace=wrap;html=1;aspect=fixed;fontSize=18;" vertex="1" parent="1">
          <mxGeometry x="1091" y="210" width="100" height="100" as="geometry" />
        </mxCell>
        <mxCell id="i8z0L9Vh0QL731lTVB1n-20" value="svclb-traefik" style="ellipse;whiteSpace=wrap;html=1;aspect=fixed;fontSize=18;" vertex="1" parent="1">
          <mxGeometry x="1267.5" y="210" width="100" height="100" as="geometry" />
        </mxCell>
        <mxCell id="i8z0L9Vh0QL731lTVB1n-21" value="metrics-server" style="ellipse;whiteSpace=wrap;html=1;aspect=fixed;fontSize=18;" vertex="1" parent="1">
          <mxGeometry x="1270" y="64" width="95" height="95" as="geometry" />
        </mxCell>
        <mxCell id="i8z0L9Vh0QL731lTVB1n-38" value="" style="endArrow=classic;html=1;rounded=0;fontSize=18;" edge="1" parent="1">
          <mxGeometry width="50" height="50" relative="1" as="geometry">
            <mxPoint x="1140" y="360" as="sourcePoint" />
            <mxPoint x="1090" y="460" as="targetPoint" />
          </mxGeometry>
        </mxCell>
        <mxCell id="i8z0L9Vh0QL731lTVB1n-39" value="" style="endArrow=classic;html=1;rounded=0;fontSize=18;" edge="1" parent="1">
          <mxGeometry width="50" height="50" relative="1" as="geometry">
            <mxPoint x="1500" y="370" as="sourcePoint" />
            <mxPoint x="1550" y="470" as="targetPoint" />
          </mxGeometry>
        </mxCell>
        <mxCell id="i8z0L9Vh0QL731lTVB1n-40" value="" style="ellipse;whiteSpace=wrap;html=1;fontSize=18;fillColor=#CCFFCC;" vertex="1" parent="1">
          <mxGeometry x="1340" y="530" width="590" height="450" as="geometry" />
        </mxCell>
        <mxCell id="i8z0L9Vh0QL731lTVB1n-41" value="" style="ellipse;whiteSpace=wrap;html=1;fontSize=18;fillColor=#CCFFCC;" vertex="1" parent="1">
          <mxGeometry x="770" y="530" width="500" height="420" as="geometry" />
        </mxCell>
        <mxCell id="i8z0L9Vh0QL731lTVB1n-42" value="Worker Node" style="text;html=1;strokeColor=none;fillColor=none;align=center;verticalAlign=middle;whiteSpace=wrap;rounded=0;fontSize=18;" vertex="1" parent="1">
          <mxGeometry x="955" y="470" width="140" height="30" as="geometry" />
        </mxCell>
        <mxCell id="i8z0L9Vh0QL731lTVB1n-43" value="Worker Node" style="text;html=1;strokeColor=none;fillColor=none;align=center;verticalAlign=middle;whiteSpace=wrap;rounded=0;fontSize=18;" vertex="1" parent="1">
          <mxGeometry x="1550" y="470" width="140" height="30" as="geometry" />
        </mxCell>
        <mxCell id="i8z0L9Vh0QL731lTVB1n-44" value="&amp;nbsp;&amp;nbsp;&amp;nbsp;&amp;nbsp;&amp;nbsp;&amp;nbsp;&amp;nbsp;&amp;nbsp;&amp;nbsp;&amp;nbsp;&amp;nbsp;&amp;nbsp;&amp;nbsp;&amp;nbsp;&amp;nbsp;&amp;nbsp;&amp;nbsp;&amp;nbsp;&amp;nbsp;&amp;nbsp;&amp;nbsp;&amp;nbsp;&amp;nbsp;&amp;nbsp;&amp;nbsp;&amp;nbsp;&amp;nbsp;&amp;nbsp;&amp;nbsp;&amp;nbsp;&amp;nbsp;&amp;nbsp;&amp;nbsp;&amp;nbsp;&amp;nbsp;&amp;nbsp;&amp;nbsp;&amp;nbsp;&amp;nbsp;&amp;nbsp; cavkube02.cavom.lan / 10.5.41.21" style="text;html=1;align=center;verticalAlign=middle;resizable=0;points=[];autosize=1;strokeColor=none;fillColor=none;fontSize=18;" vertex="1" parent="1">
          <mxGeometry x="690" y="500" width="490" height="30" as="geometry" />
        </mxCell>
        <mxCell id="i8z0L9Vh0QL731lTVB1n-45" value="&lt;div&gt;cavkube03.cavom.lan / 10.5.41.22&lt;br&gt;&lt;/div&gt;&lt;div&gt;&lt;br&gt;&lt;/div&gt;" style="text;html=1;align=center;verticalAlign=middle;resizable=0;points=[];autosize=1;strokeColor=none;fillColor=none;fontSize=18;" vertex="1" parent="1">
          <mxGeometry x="1485" y="500" width="290" height="50" as="geometry" />
        </mxCell>
        <mxCell id="i8z0L9Vh0QL731lTVB1n-47" value="" style="rounded=1;whiteSpace=wrap;html=1;fontSize=18;fillColor=#FFFFFF;" vertex="1" parent="1">
          <mxGeometry x="1430" y="600" width="220" height="200" as="geometry" />
        </mxCell>
        <mxCell id="i8z0L9Vh0QL731lTVB1n-48" value="" style="rounded=1;whiteSpace=wrap;html=1;fontSize=18;fillColor=#FFFFFF;" vertex="1" parent="1">
          <mxGeometry x="1550" y="840" width="160" height="130" as="geometry" />
        </mxCell>
        <mxCell id="i8z0L9Vh0QL731lTVB1n-49" value="" style="rounded=1;whiteSpace=wrap;html=1;fontSize=18;fillColor=#FFFFFF;" vertex="1" parent="1">
          <mxGeometry x="1680" y="635" width="130" height="95" as="geometry" />
        </mxCell>
        <mxCell id="i8z0L9Vh0QL731lTVB1n-50" value="" style="rounded=1;whiteSpace=wrap;html=1;fontSize=18;fillColor=#FFFFFF;" vertex="1" parent="1">
          <mxGeometry x="1066" y="620" width="150" height="120" as="geometry" />
        </mxCell>
        <mxCell id="i8z0L9Vh0QL731lTVB1n-51" value="" style="rounded=1;whiteSpace=wrap;html=1;fontSize=18;fillColor=#FFFFFF;" vertex="1" parent="1">
          <mxGeometry x="960" y="780" width="160" height="120" as="geometry" />
        </mxCell>
        <mxCell id="i8z0L9Vh0QL731lTVB1n-52" value="" style="rounded=1;whiteSpace=wrap;html=1;fontSize=18;fillColor=#FFFFFF;" vertex="1" parent="1">
          <mxGeometry x="870" y="580" width="190" height="170" as="geometry" />
        </mxCell>
        <mxCell id="i8z0L9Vh0QL731lTVB1n-54" value="default" style="text;html=1;strokeColor=none;fillColor=none;align=center;verticalAlign=middle;whiteSpace=wrap;rounded=0;fontSize=18;" vertex="1" parent="1">
          <mxGeometry x="935" y="555" width="60" height="30" as="geometry" />
        </mxCell>
        <mxCell id="i8z0L9Vh0QL731lTVB1n-55" value="kube-system" style="text;html=1;strokeColor=none;fillColor=none;align=center;verticalAlign=middle;whiteSpace=wrap;rounded=0;fontSize=18;" vertex="1" parent="1">
          <mxGeometry x="1083" y="590" width="111" height="30" as="geometry" />
        </mxCell>
        <mxCell id="i8z0L9Vh0QL731lTVB1n-56" value="kubernetes-dashboard" style="text;html=1;strokeColor=none;fillColor=none;align=center;verticalAlign=middle;whiteSpace=wrap;rounded=0;fontSize=18;" vertex="1" parent="1">
          <mxGeometry x="955" y="750" width="190" height="30" as="geometry" />
        </mxCell>
        <mxCell id="i8z0L9Vh0QL731lTVB1n-57" value="default" style="text;html=1;strokeColor=none;fillColor=none;align=center;verticalAlign=middle;whiteSpace=wrap;rounded=0;fontSize=18;" vertex="1" parent="1">
          <mxGeometry x="1510" y="570" width="60" height="30" as="geometry" />
        </mxCell>
        <mxCell id="i8z0L9Vh0QL731lTVB1n-58" value="kube-system" style="text;html=1;strokeColor=none;fillColor=none;align=center;verticalAlign=middle;whiteSpace=wrap;rounded=0;fontSize=18;" vertex="1" parent="1">
          <mxGeometry x="1680" y="600" width="110" height="30" as="geometry" />
        </mxCell>
        <mxCell id="i8z0L9Vh0QL731lTVB1n-59" value="kubernetes-dashboard" style="text;html=1;strokeColor=none;fillColor=none;align=center;verticalAlign=middle;whiteSpace=wrap;rounded=0;fontSize=18;" vertex="1" parent="1">
          <mxGeometry x="1540" y="810" width="200" height="30" as="geometry" />
        </mxCell>
        <mxCell id="i8z0L9Vh0QL731lTVB1n-60" value="sample-nodeapp" style="ellipse;whiteSpace=wrap;html=1;aspect=fixed;fontSize=18;fillColor=#FFFFFF;" vertex="1" parent="1">
          <mxGeometry x="935" y="665" width="80" height="80" as="geometry" />
        </mxCell>
        <mxCell id="i8z0L9Vh0QL731lTVB1n-61" value="my-nginx" style="ellipse;whiteSpace=wrap;html=1;aspect=fixed;fontSize=18;fillColor=#FFFFFF;" vertex="1" parent="1">
          <mxGeometry x="970" y="585" width="80" height="80" as="geometry" />
        </mxCell>
        <mxCell id="i8z0L9Vh0QL731lTVB1n-62" value="my-nginx" style="ellipse;whiteSpace=wrap;html=1;aspect=fixed;fontSize=18;fillColor=#FFFFFF;" vertex="1" parent="1">
          <mxGeometry x="875" y="590" width="80" height="80" as="geometry" />
        </mxCell>
        <mxCell id="i8z0L9Vh0QL731lTVB1n-63" value="svclb-traefik" style="ellipse;whiteSpace=wrap;html=1;aspect=fixed;fontSize=18;fillColor=#FFFFFF;" vertex="1" parent="1">
          <mxGeometry x="1095" y="640" width="80" height="80" as="geometry" />
        </mxCell>
        <mxCell id="i8z0L9Vh0QL731lTVB1n-64" value="kubernetes-dashboard" style="ellipse;whiteSpace=wrap;html=1;aspect=fixed;fontSize=18;fillColor=#FFFFFF;" vertex="1" parent="1">
          <mxGeometry x="989" y="787" width="106" height="106" as="geometry" />
        </mxCell>
        <mxCell id="i8z0L9Vh0QL731lTVB1n-65" value="keycloack" style="ellipse;whiteSpace=wrap;html=1;aspect=fixed;fontSize=18;fillColor=#FFFFFF;" vertex="1" parent="1">
          <mxGeometry x="1440" y="610" width="90" height="90" as="geometry" />
        </mxCell>
        <mxCell id="i8z0L9Vh0QL731lTVB1n-66" value="keycloack" style="ellipse;whiteSpace=wrap;html=1;aspect=fixed;fontSize=18;fillColor=#FFFFFF;" vertex="1" parent="1">
          <mxGeometry x="1545" y="610" width="90" height="90" as="geometry" />
        </mxCell>
        <mxCell id="i8z0L9Vh0QL731lTVB1n-67" value="keycloack2" style="ellipse;whiteSpace=wrap;html=1;aspect=fixed;fontSize=18;fillColor=#FFFFFF;" vertex="1" parent="1">
          <mxGeometry x="1490" y="690" width="100" height="100" as="geometry" />
        </mxCell>
        <mxCell id="i8z0L9Vh0QL731lTVB1n-68" value="svclb-traefik" style="ellipse;whiteSpace=wrap;html=1;aspect=fixed;fontSize=18;fillColor=#FFFFFF;" vertex="1" parent="1">
          <mxGeometry x="1705" y="640" width="80" height="80" as="geometry" />
        </mxCell>
        <mxCell id="i8z0L9Vh0QL731lTVB1n-69" value="dashboard-metrics-scraper" style="ellipse;whiteSpace=wrap;html=1;aspect=fixed;fontSize=18;fillColor=#FFFFFF;" vertex="1" parent="1">
          <mxGeometry x="1570" y="850" width="110" height="110" as="geometry" />
        </mxCell>
      </root>
    </mxGraphModel>
  </diagram>
</mxfile>
